<svg xmlns="http://www.w3.org/2000/svg" width="128" height="128" viewBox="0 0 128 128">
  <title>Artboard 11</title>
  <g>
    <g>
      <g>
        <path d="M34.481,51.055a1.338,1.338,0,0,1-.946-2.283L52.705,29.6A1.337,1.337,0,0,1,54.6,31.493l-19.17,19.17A1.333,1.333,0,0,1,34.481,51.055Z" fill="#f3f3ff"/>
        <path d="M72.716,46.922a1.327,1.327,0,0,1-.827-.287L52.823,31.6a1.337,1.337,0,1,1,1.656-2.1L73.545,44.535a1.337,1.337,0,0,1-.829,2.387Z" fill="#f3f3ff"/>
        <path d="M72.718,46.922a1.337,1.337,0,0,1-.852-2.368l22.939-18.91a1.337,1.337,0,1,1,1.7,2.063L73.568,46.617A1.336,1.336,0,0,1,72.718,46.922Z" fill="#f3f3ff"/>
      </g>
      <g>
        <circle cx="34.48" cy="49.718" r="5.279" fill="#ffa0ab"/>
        <circle cx="53.651" cy="30.547" r="5.279" fill="#ffa0ab"/>
        <circle cx="72.717" cy="45.585" r="5.279" fill="#ffa0ab"/>
        <circle cx="95.655" cy="26.675" r="5.279" fill="#ffa0ab"/>
      </g>
    </g>
    <g>
      <g>
        <path d="M27.734,71.805h9.6a2.352,2.352,0,0,1,2.352,2.352v27.1a0,0,0,0,1,0,0H25.381a0,0,0,0,1,0,0v-27.1A2.352,2.352,0,0,1,27.734,71.805Z" fill="#8de8b6"/>
        <path d="M48.71,53.746h9.6A2.352,2.352,0,0,1,60.666,56.1v45.157a0,0,0,0,1,0,0H46.358a0,0,0,0,1,0,0V56.1A2.352,2.352,0,0,1,48.71,53.746Z" fill="#8de8b6"/>
        <path d="M69.686,65.971h9.6a2.352,2.352,0,0,1,2.352,2.352v32.932a0,0,0,0,1,0,0H67.334a0,0,0,0,1,0,0V68.323A2.352,2.352,0,0,1,69.686,65.971Z" fill="#8de8b6"/>
        <path d="M90.662,48.745h9.6a2.352,2.352,0,0,1,2.352,2.352v50.158a0,0,0,0,1,0,0H88.31a0,0,0,0,1,0,0V51.1A2.352,2.352,0,0,1,90.662,48.745Z" fill="#8de8b6"/>
      </g>
      <rect x="20.681" y="101.255" width="86.637" height="5.348" fill="#36d39a"/>
    </g>
  </g>
</svg>
