<svg xmlns="http://www.w3.org/2000/svg" width="128" height="128" viewBox="0 0 128 128">
  <title>Artboard 3</title>
  <g>
    <rect x="20.681" y="32.387" width="86.637" height="63.226" rx="3.82" fill="#ff8997"/>
    <g>
      <g>
        <g>
          <path d="M60.264,55.672A15.185,15.185,0,0,1,45.1,70.825a14.944,14.944,0,0,1-8.374-2.538A15.153,15.153,0,1,1,60.264,55.672Z" fill="#77718c"/>
          <g>
            <circle cx="45.105" cy="54.182" r="5.068" fill="#f3f3ff"/>
            <path d="M53.484,67.627v.66a15.1,15.1,0,0,1-16.756,0v-.66a8.378,8.378,0,0,1,16.756,0Z" fill="#f3f3ff"/>
          </g>
        </g>
        <g>
          <path d="M54.983,80H35.229a1.338,1.338,0,0,1,0-2.675H54.983a1.338,1.338,0,0,1,0,2.675Z" fill="#ffa0ab"/>
          <path d="M52.152,87.325H38.061a1.337,1.337,0,1,1,0-2.674H52.152a1.337,1.337,0,0,1,0,2.674Z" fill="#ffa0ab"/>
        </g>
      </g>
      <g>
        <rect x="72.441" y="47.311" width="25.61" height="13.742" fill="#ffe5b0"/>
        <g>
          <path d="M98.051,72.862H72.441a1.338,1.338,0,0,1,0-2.675h25.61a1.338,1.338,0,0,1,0,2.675Z" fill="#ffa0ab"/>
          <g>
            <path d="M98.051,83.333H84.517a1.337,1.337,0,1,1,0-2.674H98.051a1.337,1.337,0,1,1,0,2.674Z" fill="#ffa0ab"/>
            <circle cx="72.441" cy="81.996" r="1.603" fill="#ffa0ab"/>
            <path d="M80.186,82a1.6,1.6,0,1,1-1.6-1.6A1.6,1.6,0,0,1,80.186,82Z" fill="#ffa0ab"/>
          </g>
        </g>
      </g>
    </g>
  </g>
</svg>
