<svg xmlns="http://www.w3.org/2000/svg" width="128" height="128" viewBox="0 0 128 128">
  <title>Artboard 1</title>
  <g>
    <g>
      <g>
        <path d="M88.139,56.625a3.43,3.43,0,0,1-2.707-1.317L64.154,28.177a3.438,3.438,0,1,1,5.411-4.243L90.843,51.065a3.439,3.439,0,0,1-2.7,5.56Z" fill="#ffa0ab"/>
        <path d="M30.353,56.625a3.43,3.43,0,0,0,2.707-1.317L54.338,28.177a3.438,3.438,0,1,0-5.411-4.243L27.649,51.065a3.439,3.439,0,0,0,2.7,5.56Z" fill="#ffa0ab"/>
      </g>
      <g>
        <path d="M62.273,50.6H25.911l5.208,34.718A9.849,9.849,0,0,0,40.86,93.71h38.7A9.849,9.849,0,0,0,89.3,85.322L94.511,50.6Z" fill="#ff8997"/>
        <g>
          <path d="M38.6,83.318a1.338,1.338,0,0,1-1.338-1.337v-16.2a1.338,1.338,0,0,1,2.675,0v16.2A1.338,1.338,0,0,1,38.6,83.318Z" fill="#ff6f7f"/>
          <path d="M48.734,83.318A1.338,1.338,0,0,1,47.4,81.981v-16.2a1.337,1.337,0,1,1,2.674,0v16.2A1.338,1.338,0,0,1,48.734,83.318Z" fill="#ff6f7f"/>
          <path d="M58.874,83.318a1.338,1.338,0,0,1-1.337-1.337v-16.2a1.337,1.337,0,1,1,2.674,0v16.2A1.338,1.338,0,0,1,58.874,83.318Z" fill="#ff6f7f"/>
        </g>
      </g>
      <path d="M93.914,56.1H24.578a4.032,4.032,0,0,1,0-8.064H93.914a4.032,4.032,0,0,1,0,8.064Z" fill="#ffda92"/>
    </g>
    <g>
      <g>
        <path d="M98.016,75.436a2.822,2.822,0,0,1-2-4.818l5.864-5.865a2.822,2.822,0,0,1,3.992,3.991l-5.864,5.865A2.813,2.813,0,0,1,98.016,75.436Z" fill="#ffda92"/>
        <path d="M75.546,75.436a2.822,2.822,0,0,0,2-4.818l-5.864-5.865a2.822,2.822,0,0,0-3.992,3.991l5.864,5.865A2.813,2.813,0,0,0,75.546,75.436Z" fill="#ffda92"/>
      </g>
      <g>
        <rect x="81.136" y="59.271" width="11.29" height="8.211" fill="#77718c"/>
        <rect x="78.369" y="53.187" width="16.824" height="6.451" rx="2.419" fill="#80dfb5"/>
      </g>
      <g>
        <circle cx="86.781" cy="84.71" r="20.673" fill="#80dfb5"/>
        <path d="M86.781,99.738A15.029,15.029,0,1,1,101.809,84.71,15.044,15.044,0,0,1,86.781,99.738Z" fill="#ffda92"/>
      </g>
      <path d="M92.426,86.047H86.781a1.338,1.338,0,0,1-1.337-1.337V75.847a1.337,1.337,0,0,1,2.674,0v7.526h4.308a1.337,1.337,0,1,1,0,2.674Z" fill="#ffb871"/>
    </g>
  </g>
</svg>
