<svg xmlns="http://www.w3.org/2000/svg" width="128" height="128" viewBox="0 0 128 128">
  <title>Artboard 9</title>
  <g>
    <g>
      <path d="M94.111,23.3,86.792,75.4V104.7l-6.028-6.6-6.036,6.6L68.7,98.1l-6.029,6.6-6.036-6.6-6.028,6.6-6.028-6.6-6.036,6.6-6.028-6.6-6.036,6.6V30.936a7.643,7.643,0,0,1,7.64-7.64Z" fill="#f3f3ff"/>
      <path d="M94.112,23.3h0a7.409,7.409,0,0,1,7.409,7.409V73.031a0,0,0,0,1,0,0H86.7a0,0,0,0,1,0,0V30.708A7.409,7.409,0,0,1,94.112,23.3Z" fill="#dcdcf4"/>
    </g>
    <g>
      <path d="M52.269,31.339a1.336,1.336,0,0,0-1.337,1.337V47.783a1.337,1.337,0,0,0,2.674,0V32.676A1.337,1.337,0,0,0,52.269,31.339Z" fill="#80dfb5"/>
      <path d="M64.823,46.445H61.055V32.676a1.337,1.337,0,1,0-2.674,0V47.783a1.337,1.337,0,0,0,1.337,1.337h5.1a1.338,1.338,0,0,0,0-2.675Z" fill="#80dfb5"/>
      <path d="M76.075,46.445H72.307V32.676a1.337,1.337,0,1,0-2.674,0V47.783A1.338,1.338,0,0,0,70.97,49.12h5.105a1.338,1.338,0,0,0,0-2.675Z" fill="#80dfb5"/>
      <path d="M44.815,39.166a5.137,5.137,0,0,0,.924-2.946,5.2,5.2,0,0,0-5.195-5.2H36a1.337,1.337,0,0,0-1.337,1.337V47.783A1.337,1.337,0,0,0,36,49.12h5.593a5.5,5.5,0,0,0,3.224-9.954ZM40.544,33.7a2.524,2.524,0,0,1,2.521,2.522,2.493,2.493,0,0,1-.737,1.773c-.058.058-.13.1-.192.148-.18-.018-.361-.028-.545-.028H37.335V33.7Zm1.047,12.747H37.335V40.787h4.256a2.813,2.813,0,0,1,.538.055l.051.009a2.828,2.828,0,0,1-.589,5.594Z" fill="#80dfb5"/>
    </g>
    <g>
      <path d="M46.26,57.869H77.746a1.337,1.337,0,1,0,0-2.674H46.26a1.337,1.337,0,1,0,0,2.674Z" fill="#dcdcf4"/>
      <path d="M39.208,55.2H35.235a1.337,1.337,0,1,0,0,2.674h3.973a1.337,1.337,0,1,0,0-2.674Z" fill="#dcdcf4"/>
      <path d="M56.49,64.607H46.26a1.337,1.337,0,1,0,0,2.674H56.49a1.337,1.337,0,0,0,0-2.674Z" fill="#dcdcf4"/>
      <path d="M39.208,64.607H35.235a1.337,1.337,0,1,0,0,2.674h3.973a1.337,1.337,0,0,0,0-2.674Z" fill="#dcdcf4"/>
      <path d="M56.49,74.02H46.26a1.338,1.338,0,0,0,0,2.675H56.49a1.338,1.338,0,0,0,0-2.675Z" fill="#dcdcf4"/>
      <path d="M39.208,74.02H35.235a1.338,1.338,0,1,0,0,2.675h3.973a1.338,1.338,0,0,0,0-2.675Z" fill="#dcdcf4"/>
      <path d="M56.49,83.433H46.26a1.337,1.337,0,1,0,0,2.674H56.49a1.337,1.337,0,1,0,0-2.674Z" fill="#dcdcf4"/>
      <path d="M39.208,83.433H35.235a1.337,1.337,0,1,0,0,2.674h3.973a1.337,1.337,0,0,0,0-2.674Z" fill="#dcdcf4"/>
      <path d="M73.724,76.237h-.635V70.161H78.1a1.337,1.337,0,0,0,0-2.674H73.089V64.973a1.338,1.338,0,0,0-2.675,0v2.514h-.635a5.712,5.712,0,1,0,0,11.424h.635v6.713H65.4a1.337,1.337,0,0,0,0,2.674h5.011v2.514a1.338,1.338,0,0,0,2.675,0V88.3h.635a5.719,5.719,0,0,0,5.713-5.712V81.95A5.72,5.72,0,0,0,73.724,76.237Zm-3.945,0a3.038,3.038,0,1,1,0-6.076h.635v6.076Zm6.984,6.349a3.043,3.043,0,0,1-3.039,3.038h-.635V78.911h.635a3.043,3.043,0,0,1,3.039,3.039Z" fill="#ffda92"/>
    </g>
  </g>
</svg>
